<svg class="svg" width="109" height="103" viewBox="0 0 109 103" fill="none" xmlns="http://www.w3.org/2000/svg">
<path d="M25.1308 38.1308C24.7094 38.5523 24.4224 39.0892 24.3061 39.6738C24.1898 40.2583 24.2495 40.8642 24.4776 41.4149C24.7057 41.9655 25.0919 42.4361 25.5875 42.7672C26.083 43.0984 26.6657 43.2751 27.2617 43.2751C27.8577 43.2751 28.4403 43.0984 28.9358 42.7672C29.4314 42.4361 29.8176 41.9655 30.0457 41.4149C30.2738 40.8642 30.3335 40.2583 30.2172 39.6738C30.1009 39.0892 29.8139 38.5523 29.3925 38.1308" stroke="#44474A" stroke-width="2" stroke-linecap="round"/>
<path d="M40.1308 38.1308C39.7094 38.5523 39.4224 39.0892 39.3061 39.6738C39.1898 40.2583 39.2495 40.8642 39.4776 41.4149C39.7057 41.9655 40.0919 42.4361 40.5875 42.7672C41.083 43.0984 41.6657 43.2751 42.2617 43.2751C42.8577 43.2751 43.4403 43.0984 43.9358 42.7672C44.4314 42.4361 44.8176 41.9655 45.0457 41.4149C45.2738 40.8642 45.3335 40.2583 45.2172 39.6738C45.1009 39.0892 44.8139 38.5523 44.3925 38.1308" stroke="#44474A" stroke-width="2" stroke-linecap="round"/>
<path d="M58.7799 40.4706C58.9342 41.0463 59.2557 41.5634 59.7038 41.9563C60.1519 42.3493 60.7065 42.6006 61.2974 42.6784C61.8883 42.7562 62.489 42.657 63.0235 42.3934C63.5581 42.1298 64.0024 41.7136 64.3004 41.1974C64.5984 40.6813 64.7367 40.0883 64.6977 39.4936C64.6587 38.8989 64.4443 38.3291 64.0814 37.8562C63.7186 37.3834 63.2237 37.0288 62.6593 36.8372C62.095 36.6456 61.4865 36.6257 60.9108 36.7799" stroke="#44474A" stroke-width="2" stroke-linecap="round"/>
<path d="M11.6015 40.4706C11.4472 41.0463 11.1257 41.5634 10.6776 41.9563C10.2295 42.3493 9.67494 42.6006 9.08404 42.6784C8.49313 42.7562 7.89243 42.657 7.35789 42.3934C6.82335 42.1298 6.37898 41.7136 6.08098 41.1974C5.78298 40.6813 5.64473 40.0883 5.68371 39.4936C5.72269 38.8989 5.93715 38.3291 6.29998 37.8562C6.6628 37.3834 7.15769 37.0288 7.72206 36.8372C8.28644 36.6456 8.89495 36.6257 9.47064 36.7799" stroke="#44474A" stroke-width="2" stroke-linecap="round"/>
<path d="M59 36C59 42.3652 56.4714 48.4697 51.9706 52.9706C47.4697 57.4714 41.3652 60 35 60C28.6348 60 22.5303 57.4714 18.0294 52.9706C13.5286 48.4697 11 42.3652 11 36" stroke="#44474A" stroke-width="2" stroke-linecap="round"/>
<path d="M59 40.6721C59 37.5861 58.3792 18.3581 57.1731 15.5069C55.967 12.6558 54.1992 10.0652 51.9706 7.88299C49.742 5.70081 47.0962 3.96982 44.1844 2.78883C41.2726 1.60785 38.1517 1 35 1C31.8483 1 28.7274 1.60785 25.8156 2.78883C22.9038 3.96982 20.258 5.70081 18.0294 7.88299C15.8008 10.0652 14.033 12.6558 12.8269 15.5069C11.6208 18.3581 11 34.5 11 37.5861" stroke="#44474A" stroke-width="2"/>
<path d="M12 29C27.0505 31.2184 34.9137 30.0012 45.0312 21.2668C46.0352 20.4 47.5978 20.677 48.2522 21.8308C51.9686 28.3834 54.4232 29.1846 58.5 29" stroke="#44474A" stroke-width="2" stroke-linecap="round"/>
<path d="M57.5912 14.6842C58.7703 12.6418 60.5651 11.0245 62.7188 10.0635C64.8725 9.10252 67.2749 8.84705 69.5825 9.33362C71.8901 9.82019 73.9848 11.0239 75.5672 12.7726C77.1495 14.5214 78.1385 16.7256 78.3926 19.0703C78.6468 21.4149 78.1532 23.7799 76.9823 25.8271C75.8115 27.8743 74.0233 29.4989 71.8736 30.4686C69.7238 31.4384 67.3225 31.7037 65.0129 31.2265C62.7033 30.7494 60.6037 29.5542 59.0142 27.8119" stroke="#44474A" stroke-width="2" stroke-linecap="round"/>
<path d="M12 21.988C27.8847 22.1857 36.0735 20.0859 47 5" stroke="#44474A" stroke-width="2" stroke-linecap="round"/>
<path d="M59 26C69.1462 23.7242 71.6919 19.3405 74 12" stroke="#44474A" stroke-width="2" stroke-linecap="round"/>
<path d="M1.5 101.5V76.4539C1.5 76.1551 1.56847 75.8552 1.70024 75.587C6.46 65.9007 11.9605 64.0189 25.9452 66.8848C26.3039 66.9583 26.6412 67.1324 26.9083 67.3828L33.1321 73.2176C33.9014 73.9388 35.0986 73.9388 35.8679 73.2176L41.923 67.5409C42.2937 67.1934 42.7828 67 43.2909 67H59" stroke="#44474A" stroke-width="2" stroke-linecap="round"/>
<line x1="41" y1="60" x2="41" y2="67" stroke="#44474A" stroke-width="2" stroke-linecap="round"/>
<path d="M27 79.5L27 92.5" stroke="#44474A" stroke-width="2" stroke-linecap="round"/>
<path d="M12 79.5L12 92.5" stroke="#44474A" stroke-width="2" stroke-linecap="round"/>
<line x1="28" y1="60" x2="28" y2="67" stroke="#44474A" stroke-width="2" stroke-linecap="round"/>
<line x1="19" y1="67" x2="19" y2="74" stroke="#44474A" stroke-width="2" stroke-linecap="round"/>
<path d="M12.4166 78.9826C13.0023 77.5686 13.9941 76.36 15.2667 75.5096C16.5394 74.6593 18.0355 74.2054 19.5661 74.2054C21.0966 74.2054 22.5928 74.6593 23.8654 75.5096C25.138 76.36 26.1299 77.5686 26.7156 78.9826" stroke="#44474A" stroke-width="2" stroke-linecap="round"/>
<line x1="12" y1="93" x2="15" y2="93" stroke="#44474A" stroke-width="2" stroke-linecap="round"/>
<line x1="24" y1="93" x2="27" y2="93" stroke="#44474A" stroke-width="2" stroke-linecap="round"/>
<circle cx="83" cy="76" r="25" stroke="#44474A" stroke-width="2"/>
<path d="M95.6867 68.2986C94.9537 67.5699 94.0833 66.9918 93.1254 66.5974C92.1675 66.203 91.1407 66 90.1038 66C89.0669 66 88.0402 66.203 87.0822 66.5974C86.1243 66.9918 85.254 67.5699 84.5209 68.2986L82.9996 69.8102L81.4783 68.2986C79.9976 66.8273 77.9894 66.0008 75.8954 66.0008C73.8014 66.0008 71.7932 66.8273 70.3125 68.2986C68.8318 69.7699 68 71.7653 68 73.846C68 75.9267 68.8318 77.9222 70.3125 79.3935L71.8338 80.9051L82.9996 92L94.1654 80.9051L95.6867 79.3935C96.4201 78.6651 97.0019 77.8003 97.3988 76.8484C97.7957 75.8966 98 74.8764 98 73.846C98 72.8157 97.7957 71.7955 97.3988 70.8436C97.0019 69.8918 96.4201 69.027 95.6867 68.2986Z" stroke="#44474A" stroke-width="2" stroke-linecap="round" stroke-linejoin="round"/>
<path d="M64 79.5H69.5" stroke="#44474A" stroke-width="2" stroke-linecap="round"/>
<path d="M70.5 79.5L73.9287 74.8246C74.8442 73.5762 76.7699 73.7965 77.3798 75.2194L79.4274 79.9973C79.9592 81.2382 81.5423 81.6066 82.5673 80.728L83.4383 79.9815C83.8008 79.6708 84.2624 79.5 84.7398 79.5H88.5" stroke="#44474A" stroke-width="2" stroke-linecap="round"/>
<line x1="48" y1="68" x2="48" y2="80" stroke="#44474A" stroke-width="2" stroke-linecap="round"/>
<circle cx="48.5" cy="86.5" r="5.5" stroke="#44474A" stroke-width="2"/>
<line x1="2" y1="102" x2="68" y2="102" stroke="#44474A" stroke-width="2" stroke-linecap="round"/>
</svg>
