<svg width="95" height="113" viewBox="0 0 95 113" fill="none" xmlns="http://www.w3.org/2000/svg">
<circle cx="47.5" cy="36.5" r="19.5" stroke="#44474A" stroke-width="2"/>
<line x1="44" y1="28" x2="44" y2="34" stroke="#44474A" stroke-width="2" stroke-linecap="round"/>
<line x1="56" y1="34" x2="50" y2="34" stroke="#44474A" stroke-width="2" stroke-linecap="round"/>
<line x1="44" y1="34" x2="38" y2="34" stroke="#44474A" stroke-width="2" stroke-linecap="round"/>
<line x1="44" y1="40" x2="44" y2="46" stroke="#44474A" stroke-width="2" stroke-linecap="round"/>
<line x1="50" y1="28" x2="50" y2="34" stroke="#44474A" stroke-width="2" stroke-linecap="round"/>
<line x1="56" y1="34" x2="56" y2="40" stroke="#44474A" stroke-width="2" stroke-linecap="round"/>
<line x1="44" y1="46" x2="50" y2="46" stroke="#44474A" stroke-width="2" stroke-linecap="round"/>
<line x1="44" y1="28" x2="50" y2="28" stroke="#44474A" stroke-width="2" stroke-linecap="round"/>
<line x1="38" y1="34" x2="38" y2="40" stroke="#44474A" stroke-width="2" stroke-linecap="round"/>
<line x1="56" y1="40" x2="50" y2="40" stroke="#44474A" stroke-width="2" stroke-linecap="round"/>
<line x1="44" y1="40" x2="38" y2="40" stroke="#44474A" stroke-width="2" stroke-linecap="round"/>
<line x1="50" y1="40" x2="50" y2="46" stroke="#44474A" stroke-width="2" stroke-linecap="round"/>
<circle cx="47" cy="6" r="5" stroke="#44474A" stroke-width="2"/>
<circle cx="68" cy="14" r="5" stroke="#44474A" stroke-width="2"/>
<circle cx="27" cy="14" r="5" stroke="#44474A" stroke-width="2"/>
<line x1="15.1444" y1="48.2449" x2="75.7302" y2="108.831" stroke="#44474A" stroke-width="2" stroke-linecap="round"/>
<line x1="21.1444" y1="42.2449" x2="63.7302" y2="84.8306" stroke="#44474A" stroke-width="2" stroke-linecap="round"/>
<path d="M74.7302 107.745L76.1661 109.181C76.2088 109.223 76.2488 109.267 76.2892 109.312C76.6831 109.751 78.9995 112.155 81.7302 111.245C84.7302 110.245 91.2302 104.245 93.2302 101.745C95.1331 99.3663 91.6046 88.8406 91.2574 87.8239C91.2377 87.7661 91.2168 87.7151 91.1913 87.6596C88.031 80.7643 84.4933 80.8671 76.5108 81.232C76.3267 81.2404 76.1415 81.2744 75.9667 81.3327L65.4029 84.854C64.6842 85.0935 63.8919 84.9065 63.3562 84.3708L61.7302 82.7449" stroke="#44474A" stroke-width="2" stroke-linecap="round"/>
<circle cx="78.2302" cy="94.7449" r="7.5" stroke="#44474A" stroke-width="2"/>
<line x1="1" y1="-1" x2="86.6812" y2="-1" transform="matrix(-0.707107 0.707107 0.707107 0.707107 81.0601 48.2449)" stroke="#44474A" stroke-width="2" stroke-linecap="round"/>
<line x1="1" y1="-1" x2="61.2254" y2="-1" transform="matrix(-0.707107 0.707107 0.707107 0.707107 75.0601 42.2449)" stroke="#44474A" stroke-width="2" stroke-linecap="round"/>
<path d="M20.0601 107.745L18.6242 109.181C18.5815 109.223 18.5414 109.267 18.5011 109.312C18.1072 109.751 15.7907 112.155 13.0601 111.245C10.0601 110.245 3.56006 104.245 1.56006 101.745C-0.342814 99.3663 3.1857 88.8406 3.5329 87.8239C3.55263 87.7661 3.57351 87.7151 3.59894 87.6596C6.75931 80.7643 10.297 80.8671 18.2795 81.232C18.4636 81.2404 18.6487 81.2744 18.8236 81.3327L29.3874 84.854C30.1061 85.0936 30.8984 84.9065 31.4341 84.3708L33.0601 82.7449" stroke="#44474A" stroke-width="2" stroke-linecap="round"/>
<path d="M78.5601 49.2449L80.2044 47.6006C80.7304 47.0745 80.921 46.2999 80.6991 45.5898L79.3914 41.405C78.9831 40.0987 77.4129 39.5791 76.3061 40.3841L73.187 42.6526C73.1025 42.714 73.023 42.782 72.9491 42.8558L70.5601 45.2449" stroke="#44474A" stroke-width="2" stroke-linecap="round"/>
<circle cx="8.5" cy="8.5" r="7.5" transform="matrix(-1 0 0 1 25.0601 86.2449)" stroke="#44474A" stroke-width="2"/>
<line x1="14.1444" y1="47.5" x2="74.7302" y2="108.086" stroke="#44474A" stroke-width="2" stroke-linecap="round"/>
<line x1="20.1444" y1="41.5" x2="62.7302" y2="84.0858" stroke="#44474A" stroke-width="2" stroke-linecap="round"/>
<path d="M15.2302 48.5L13.5859 46.8557C13.0599 46.3296 12.8693 45.555 13.0912 44.8449L14.3989 40.6602C14.8071 39.3539 16.3774 38.8343 17.4842 39.6393L20.6033 41.9077C20.6878 41.9691 20.7673 42.0371 20.8412 42.111L23.2302 44.5" stroke="#44474A" stroke-width="2" stroke-linecap="round"/>
<circle cx="47.5" cy="74.5" r="1.5" fill="#44474A"/>
</svg>
