<svg width="101" height="103" viewBox="0 0 101 103" fill="none" xmlns="http://www.w3.org/2000/svg">
<rect x="1" y="1" width="79" height="83" rx="1" stroke="#44474A" stroke-width="2"/>
<path d="M51.5 2.5V12.0961C51.5 12.3627 51.5512 12.623 51.6677 12.8627C52.506 14.5877 56.5024 21.8231 64 20.5C72.5 19 79 25 79 25" stroke="#44474A" stroke-width="2" stroke-linecap="round"/>
<path d="M30 2V11.3586C30 11.635 29.9441 11.9067 29.8188 12.1531C28.9429 13.8759 24.8759 20.8885 17.2727 19.6C8.61818 18.1333 2 24 2 24" stroke="#44474A" stroke-width="2" stroke-linecap="round"/>
<path d="M30 5.5L38.8801 12.16C39.5525 12.6644 40.4685 12.6944 41.1726 12.2353L51.5 5.5" stroke="#44474A" stroke-width="2" stroke-linecap="round"/>
<line x1="46" y1="9" x2="46" y2="31" stroke="#44474A" stroke-width="2" stroke-linecap="round"/>
<line x1="34" y1="9" x2="34" y2="31" stroke="#44474A" stroke-width="2" stroke-linecap="round"/>
<path d="M46.5 28C46.5 28 67 30.5 67 38C67 44.6565 67 62.3408 67 66.2346C67 66.7349 66.8141 67.2213 66.4384 67.5516C58.1852 74.8073 42.8931 52.7696 46.5 45.5C50.1904 38.0621 42 42 42 42" stroke="#44474A" stroke-width="2" stroke-linecap="round"/>
<path d="M33.5 28C33.5 28 13 30.5 13 38C13 44.6565 13 62.3408 13 66.2346C13 66.7349 13.1859 67.2213 13.5616 67.5516C21.8148 74.8073 37.1069 52.7696 33.5 45.5C29.8096 38.0621 38 42 38 42" stroke="#44474A" stroke-width="2" stroke-linecap="round"/>
<path d="M1.5 72L6.55279 61.8944C7.21769 60.5646 9.02289 60.4168 9.82033 61.6716C11.5859 64.4499 14 68.8285 14 72C14 77 14 84.5 14 84.5" stroke="#44474A" stroke-width="2" stroke-linecap="round"/>
<path d="M79.5 72L74.4472 61.8944C73.7823 60.5646 71.9771 60.4168 71.1797 61.6716C69.4141 64.4499 67 68.8285 67 72C67 77 67 84.5 67 84.5" stroke="#44474A" stroke-width="2" stroke-linecap="round"/>
<circle cx="59.5" cy="56.5" r="1.5" fill="#44474A"/>
<circle cx="53.5" cy="40.5" r="1.5" fill="#44474A"/>
<circle cx="52.5" cy="49.5" r="1.5" fill="#44474A"/>
<circle cx="57.5" cy="49.5" r="1.5" fill="#44474A"/>
<circle cx="1.5" cy="1.5" r="1.5" transform="matrix(-1 0 0 1 19 56)" fill="#44474A"/>
<circle cx="1.5" cy="1.5" r="1.5" transform="matrix(-1 0 0 1 25 40)" fill="#44474A"/>
<circle cx="1.5" cy="1.5" r="1.5" transform="matrix(-1 0 0 1 26 49)" fill="#44474A"/>
<circle cx="1.5" cy="1.5" r="1.5" transform="matrix(-1 0 0 1 21 49)" fill="#44474A"/>
<path d="M46 31V33C46 34.1046 46.8954 35 48 35H48.5" stroke="#44474A" stroke-width="2" stroke-linecap="round"/>
<path d="M34 30.5V32C34 33.1046 33.1046 34 32 34H31" stroke="#44474A" stroke-width="2" stroke-linecap="round"/>
<path d="M38 41.5L38.2635 41.0389C39.0313 39.6952 40.9687 39.6952 41.7365 41.0389L42 41.5" stroke="#44474A" stroke-width="2" stroke-linecap="round"/>
<path d="M55 84.5L70.7178 94.8148C70.9046 94.9374 71.0696 95.0904 71.2058 95.2675L75.3996 100.719C75.7781 101.212 76.3639 101.5 76.9848 101.5H97.6801C98.902 101.5 99.8382 100.414 99.6582 99.2054L96.8015 80.0246C96.6684 79.1304 95.613 78.7207 94.9114 79.2908V79.2908C93.8624 80.1431 92.4456 78.8282 93.2175 77.7186L96.0334 73.6708C96.3308 73.2432 96.4357 72.7107 96.3227 72.2023L92.5 55L88.633 41.4654C88.5456 41.1595 88.3865 40.879 88.169 40.6469L81 33" stroke="#44474A" stroke-width="2" stroke-linecap="round"/>
</svg>
