<svg width="95" height="95" viewBox="0 0 95 95" fill="none" xmlns="http://www.w3.org/2000/svg">
<rect x="75.2498" y="14.435" width="6.15265" height="10" rx="1" transform="rotate(45 75.2498 14.435)" stroke="#44474A" stroke-width="2"/>
<line x1="78.0781" y1="15.8492" x2="92.9274" y2="1" stroke="#44474A" stroke-width="2" stroke-linecap="round"/>
<line x1="56.8788" y1="51.7924" x2="51.293" y2="46.2066" stroke="#44474A" stroke-width="2" stroke-linecap="round"/>
<line x1="47.8788" y1="60.7924" x2="42.293" y2="55.2066" stroke="#44474A" stroke-width="2" stroke-linecap="round"/>
<rect x="1.41421" y="77.6166" width="8.06511" height="22.4123" rx="1" transform="rotate(-45 1.41421 77.6166)" stroke="#44474A" stroke-width="2"/>
<rect x="11.6103" y="61.1041" width="8" height="30" rx="1" transform="rotate(-45 11.6103 61.1041)" stroke="#44474A" stroke-width="2"/>
<mask id="path-7-inside-1_258_269" fill="white">
<path d="M51.9154 25.0416C51.1343 24.2606 51.1271 22.9807 52.0114 22.3188C52.944 21.6208 53.9621 21.0404 55.0431 20.5926C56.7416 19.889 58.5621 19.5269 60.4006 19.5269C62.2391 19.5269 64.0596 19.889 65.7582 20.5926C67.4568 21.2962 69.0001 22.3274 70.3001 23.6274C71.6002 24.9274 72.6314 26.4708 73.3349 28.1693C74.0385 29.8679 74.4006 31.6884 74.4006 33.5269C74.4006 35.3654 74.0385 37.1859 73.3349 38.8845C72.8872 39.9655 72.3067 40.9836 71.6087 41.9161C70.9468 42.8004 69.667 42.7932 68.8859 42.0122L60.4006 33.5269L51.9154 25.0416Z"/>
</mask>
<path d="M51.9154 25.0416C51.1343 24.2606 51.1271 22.9807 52.0114 22.3188C52.944 21.6208 53.9621 21.0404 55.0431 20.5926C56.7416 19.889 58.5621 19.5269 60.4006 19.5269C62.2391 19.5269 64.0596 19.889 65.7582 20.5926C67.4568 21.2962 69.0001 22.3274 70.3001 23.6274C71.6002 24.9274 72.6314 26.4708 73.3349 28.1693C74.0385 29.8679 74.4006 31.6884 74.4006 33.5269C74.4006 35.3654 74.0385 37.1859 73.3349 38.8845C72.8872 39.9655 72.3067 40.9836 71.6087 41.9161C70.9468 42.8004 69.667 42.7932 68.8859 42.0122L60.4006 33.5269L51.9154 25.0416Z" stroke="#44474A" stroke-width="4" mask="url(#path-7-inside-1_258_269)"/>
<rect x="53.3296" y="25.0416" width="22" height="46" rx="1" transform="rotate(45 53.3296 25.0416)" stroke="#44474A" stroke-width="2"/>
<rect x="20.0955" y="69.5894" width="6" height="10" rx="1" transform="rotate(45 20.0955 69.5894)" stroke="#44474A" stroke-width="2"/>
</svg>
